HIERARCHY
ROOT Pelvis
{
	OFFSET 0.000000 0.000000 0.000000
	CHANNELS 6 Xposition Yposition Zposition Xrotation Yrotation Zrotation
	JOINT LeftUpLeg_virtual
	{
		OFFSET 0.000000 0.000000 0.000000
		CHANNELS 3 Xrotation Yrotation Zrotation
		JOINT LeftUpLeg
		{
			OFFSET 18.735201 -5.666702 -4.541200
			CHANNELS 3 Xrotation Yrotation Zrotation
			JOINT LeftLeg
			{
				OFFSET -0.021200 -31.938179 0.493100
				CHANNELS 3 Xrotation Yrotation Zrotation
				JOINT LeftFoot
				{
					OFFSET 0.021200 -31.938179 -4.336299
					CHANNELS 3 Xrotation Yrotation Zrotation
					JOINT LeftToeBase
					{
						OFFSET 0.943001 -26.722000 15.023500
						CHANNELS 3 Xrotation Yrotation Zrotation
						End Site
						{
							OFFSET 0 0 0
						}
					}
				}
			}
		}
	}
	JOINT RightUpLeg_virtual
	{
		OFFSET 0.000000 0.000000 0.000000
		CHANNELS 3 Xrotation Yrotation Zrotation
		JOINT RightUpLeg
		{
			OFFSET -18.735201 -5.666702 -4.541200
			CHANNELS 3 Xrotation Yrotation Zrotation
			JOINT RightLeg
			{
				OFFSET 0.018946 -31.938133 0.493100
				CHANNELS 3 Xrotation Yrotation Zrotation
				JOINT RightFoot
				{
					OFFSET -0.018946 -31.938126 -4.336299
					CHANNELS 3 Xrotation Yrotation Zrotation
					JOINT RightToeBase
					{
						OFFSET -0.943001 -26.722004 15.023500
						CHANNELS 3 Xrotation Yrotation Zrotation
						End Site
						{
							OFFSET 0 0 0
						}
					}
				}
			}
		}
	}
	JOINT Hips_virtual
	{
		OFFSET 0.000000 0.000000 0.000000
		CHANNELS 3 Xrotation Yrotation Zrotation
		JOINT Hips
		{
			OFFSET -0.000000 -0.000000 -0.000000
			CHANNELS 3 Xrotation Yrotation Zrotation
			JOINT Spine
			{
				OFFSET 0.000000 10.199997 -0.299500
				CHANNELS 3 Xrotation Yrotation Zrotation
				JOINT Spine1
				{
					OFFSET 0.000000 11.900002 -1.516600
					CHANNELS 3 Xrotation Yrotation Zrotation
					JOINT Spine2
					{
						OFFSET 0.000000 13.600006 -2.842500
						CHANNELS 3 Xrotation Yrotation Zrotation
						JOINT Neck_virtual
						{
							OFFSET 0.000000 0.000000 0.000000
							CHANNELS 3 Xrotation Yrotation Zrotation
							JOINT Neck
							{
								OFFSET 0.000000 9.624100 -2.890100
								CHANNELS 3 Xrotation Yrotation Zrotation
								JOINT Head
								{
									OFFSET 0.000000 14.068802 -1.351900
									CHANNELS 3 Xrotation Yrotation Zrotation
									End Site
									{
										OFFSET 0 0 0
									}
								}
							}
						}
						JOINT LeftShoulder_virtual
						{
							OFFSET 0.000000 0.000000 0.000000
							CHANNELS 3 Xrotation Yrotation Zrotation
							JOINT LeftShoulder
							{
								OFFSET 15.263000 10.923401 -0.547700
								CHANNELS 3 Xrotation Yrotation Zrotation
								JOINT LeftArm
								{
									OFFSET 25.438599 -2.830597 -13.032500
									CHANNELS 3 Xrotation Yrotation Zrotation
									JOINT LeftForeArm
									{
										OFFSET 29.960503 0.000000 0.000000
										CHANNELS 3 Xrotation Yrotation Zrotation
										JOINT LeftHand
										{
											OFFSET 27.849251 0.000000 0.000000
											CHANNELS 3 Xrotation Yrotation Zrotation
											End Site
											{
												OFFSET 0 0 0
											}
										}
									}
								}
							}
						}
						JOINT RightShoulder_virtual
						{
							OFFSET 0.000000 0.000000 0.000000
							CHANNELS 3 Xrotation Yrotation Zrotation
							JOINT RightShoulder
							{
								OFFSET -15.263000 10.923401 -0.547700
								CHANNELS 3 Xrotation Yrotation Zrotation
								JOINT RightArm
								{
									OFFSET -25.438599 -2.830597 -13.032500
									CHANNELS 3 Xrotation Yrotation Zrotation
									JOINT RightForeArm
									{
										OFFSET -29.960503 0.000000 0.000000
										CHANNELS 3 Xrotation Yrotation Zrotation
										JOINT RightHand
										{
											OFFSET -27.849251 0.000000 0.000000
											CHANNELS 3 Xrotation Yrotation Zrotation
											End Site
											{
												OFFSET 0 0 0
											}
										}
									}
								}
							}
						}
					}
				}
			}
		}
	}
}
MOTION
Frames: 5
Frame Time: 0.03333333
0.255526 88.378044 4.543804 0.000000 0.000000 0.000000 5.443499 2.847076 -2.777247 -56.612409 9.595159 -1.976661 100.002958 15.295821 4.145819 1.222855 -0.966805 11.397373 0.000000 0.000000 0.000000 5.443499 2.847076 -2.777247 -19.758639 -5.735632 4.478582 47.683019 -0.316767 -1.605433 -24.509174 0.688490 -1.860318 0.000000 0.000000 0.000000 5.443499 2.847076 -2.777247 0.000000 0.000000 0.000000 4.932292 1.387325 1.143419 9.857122 2.800250 1.722122 0.000000 0.000000 0.000000 9.857128 2.800249 1.722122 -1.496887 -0.633124 -0.053940 0.000000 0.000000 0.000000 9.857128 2.800249 1.722122 1.084062 -1.226535 -9.108710 21.951222 16.129890 -69.744605 -174.798065 -76.010129 173.876672 0.000000 0.000000 0.000000 9.857128 2.800249 1.722122 0.776463 6.054085 9.529804 5.506730 -10.523599 55.529295 -70.896168 86.710563 75.613302 0.000000 0.000000 0.000000 
1.512585 88.681122 25.602341 0.000000 0.000000 0.000000 0.125849 -1.733963 3.008453 -69.148070 4.613327 -3.746603 86.310553 15.984581 4.285738 16.950424 0.496232 13.647077 0.000000 0.000000 0.000000 0.125849 -1.733963 3.008453 -11.330031 -3.599123 -3.158031 53.405406 2.128220 -4.205108 -0.124087 0.717913 1.688113 0.000000 0.000000 0.000000 0.125849 -1.733963 3.008453 0.000000 0.000000 0.000000 4.711546 1.812208 0.377608 9.488553 3.163841 -0.986325 0.000000 0.000000 0.000000 9.488547 3.163836 -0.986325 0.532491 -0.672809 -0.527621 0.000000 0.000000 0.000000 9.488547 3.163836 -0.986325 0.950474 -5.646697 -7.066023 19.644681 26.553708 -68.303381 135.055926 -88.006687 123.489711 0.000000 0.000000 0.000000 9.488547 3.163836 -0.986325 0.215430 7.052324 4.417729 -0.696332 -7.601968 49.506604 -136.724200 80.118474 141.096668 0.000000 0.000000 0.000000 
1.164320 84.417641 43.943443 0.000000 0.000000 0.000000 -6.460882 -7.958719 9.069153 -72.634602 0.923299 -5.861638 73.975662 21.672303 5.620690 15.874968 0.254634 12.360207 0.000000 0.000000 0.000000 -6.460882 -7.958719 9.069153 -9.111886 5.765099 -10.098624 53.442259 5.604124 -3.637903 54.612861 -0.598858 -2.314990 0.000000 0.000000 0.000000 -6.460882 -7.958719 9.069153 0.000000 0.000000 0.000000 5.259292 1.849606 -2.685663 10.507890 3.279739 -3.461314 0.000000 0.000000 0.000000 10.507894 3.279739 -3.461315 2.302380 -0.611346 -0.925483 0.000000 0.000000 0.000000 10.507894 3.279739 -3.461315 0.774289 -9.387641 -6.438879 20.205216 35.514603 -63.760110 44.363431 -72.657367 27.758488 0.000000 0.000000 0.000000 10.507894 3.279739 -3.461315 -0.199671 7.579317 -1.593902 -6.612556 -8.410415 44.561995 -147.787658 71.668349 149.583288 0.000000 0.000000 0.000000 
1.029099 78.400452 62.889202 0.000000 0.000000 0.000000 -10.546624 -16.905937 12.602892 -66.993719 -1.652146 -5.691795 58.067181 27.835975 7.440084 9.348389 -0.212886 13.979468 0.000000 0.000000 0.000000 -10.546624 -16.905937 12.602892 -1.521431 9.029681 -11.153067 53.378997 11.202536 1.907983 72.994286 4.377873 5.562071 0.000000 0.000000 0.000000 -10.546624 -16.905937 12.602892 0.000000 -0.000001 0.000001 5.823313 2.239697 -4.837181 11.598091 3.450191 -5.915489 0.000000 0.000000 0.000000 11.598088 3.450194 -5.915491 3.398033 -0.385127 -1.260388 0.000000 0.000000 0.000000 11.598088 3.450194 -5.915491 0.522786 -10.917882 -5.526653 24.556565 41.465594 -61.039324 37.414448 -54.868614 14.591043 0.000000 0.000000 0.000000 11.598088 3.450194 -5.915491 -0.402399 7.421403 -7.423812 -7.388204 -13.516203 42.105381 -151.539044 58.470920 151.678434 0.000000 0.000000 0.000000 
1.333538 70.617508 82.550110 0.000000 0.000000 0.000000 -12.060805 -23.287564 14.852436 -61.798910 -6.554115 -6.197105 41.440206 26.182782 10.792218 10.288381 0.044525 14.963182 0.000000 0.000000 0.000000 -12.060805 -23.287564 14.852436 -11.574961 8.723688 -11.382612 69.519161 17.121817 6.299603 69.002737 8.832639 11.411920 0.000000 0.000000 0.000000 -12.060805 -23.287564 14.852436 0.000000 0.000000 0.000000 6.075791 1.836999 -5.777266 12.111664 2.599642 -7.393911 0.000000 0.000000 0.000000 12.111659 2.599639 -7.393915 3.785975 0.033794 -1.703065 0.000000 0.000000 0.000000 12.111659 2.599639 -7.393915 0.359107 -9.792225 -4.379270 32.308755 43.073020 -63.696104 29.496770 -41.701901 3.262010 0.000000 0.000000 0.000000 12.111659 2.599639 -7.393915 -0.246781 7.358129 -10.189526 1.690242 -20.768319 43.430444 -152.511513 44.129958 154.799134 0.000000 0.000000 0.000000 
